<svg id="svg" version="1.1" xmlns="http://www.w3.org/2000/svg" xmlns:xlink="http://www.w3.org/1999/xlink" width="400" height="400" viewBox="0, 0, 400,400"><g id="svgg"><path id="path0" d="M206.600 90.867 C 200.241 93.260,195.133 103.618,197.619 109.080 C 199.712 113.681,198.379 118.048,193.261 123.349 C 191.535 125.137,188.598 128.670,186.735 131.200 C 180.753 139.323,170.621 153.027,163.237 162.981 C 159.848 167.550,158.802 169.250,158.807 170.181 C 158.810 170.852,159.167 189.580,159.600 211.800 C 160.033 234.020,160.390 254.495,160.393 257.300 L 160.400 262.400 172.500 262.399 C 210.640 262.398,261.488 260.697,268.200 259.198 C 273.742 257.961,273.564 249.421,267.959 247.636 C 263.837 246.323,265.109 240.239,270.075 237.514 C 275.903 234.316,275.748 227.640,269.782 224.821 C 263.124 221.675,262.852 214.152,269.286 211.106 C 277.003 207.452,277.208 199.763,269.688 196.094 C 263.295 192.974,263.644 190.947,271.860 183.493 C 277.220 178.631,276.443 168.728,270.277 163.320 C 265.887 159.469,245.025 156.698,227.400 157.624 C 212.176 158.425,210.903 157.635,216.393 150.800 C 217.541 149.370,218.759 147.660,219.100 147.000 C 219.440 146.340,220.121 145.260,220.614 144.600 C 225.355 138.243,229.532 114.244,227.243 106.510 C 224.806 98.275,212.233 88.748,206.600 90.867 M105.383 173.945 C 103.677 174.986,102.097 176.974,101.591 178.718 C 101.292 179.748,101.198 194.315,101.281 226.466 L 101.400 272.731 102.606 274.446 C 105.052 277.927,104.234 277.800,124.229 277.800 L 141.859 277.800 143.294 276.816 C 144.084 276.275,145.196 275.114,145.765 274.236 L 146.800 272.640 146.800 225.614 C 146.800 172.539,147.087 177.160,143.628 174.500 L 141.938 173.200 124.269 173.201 C 107.764 173.203,106.520 173.252,105.383 173.945 " stroke="none" fill="#fbfbfc" fill-rule="evenodd"></path><path id="path1" d="M181.400 27.804 C 180.960 27.879,177.945 28.157,174.700 28.422 C 171.455 28.687,168.800 29.060,168.800 29.252 C 168.800 29.443,168.367 29.600,167.839 29.600 C 166.487 29.600,154.695 31.616,154.204 31.931 C 153.982 32.074,151.640 32.760,149.000 33.457 C 142.770 35.102,137.053 36.839,136.800 37.164 C 136.690 37.306,135.520 37.752,134.200 38.156 C 132.880 38.559,130.900 39.303,129.800 39.808 C 128.700 40.313,126.765 41.123,125.500 41.609 C 124.235 42.095,123.200 42.652,123.200 42.846 C 123.200 43.041,122.945 43.200,122.633 43.200 C 121.946 43.200,118.300 44.733,118.008 45.144 C 117.894 45.305,116.632 45.937,115.205 46.548 C 113.778 47.159,112.518 47.796,112.405 47.963 C 112.292 48.130,111.165 48.752,109.900 49.345 C 108.635 49.938,107.600 50.598,107.600 50.812 C 107.600 51.025,107.363 51.200,107.074 51.200 C 106.785 51.200,105.341 52.010,103.865 53.000 C 102.389 53.990,101.039 54.800,100.866 54.800 C 100.693 54.800,100.199 55.128,99.769 55.528 C 99.339 55.929,98.181 56.752,97.194 57.358 C 95.179 58.595,93.090 60.042,91.600 61.234 C 91.050 61.673,89.430 62.949,88.000 64.069 C 75.687 73.713,61.709 88.311,54.552 99.000 C 53.963 99.880,53.363 100.690,53.219 100.800 C 53.075 100.910,52.524 101.720,51.994 102.600 C 51.464 103.480,50.794 104.442,50.506 104.738 C 50.217 105.034,49.716 105.789,49.391 106.417 C 49.066 107.045,48.267 108.350,47.614 109.317 C 46.962 110.284,46.246 111.553,46.024 112.137 C 45.802 112.722,45.449 113.200,45.241 113.200 C 45.033 113.200,44.657 113.821,44.406 114.580 C 44.156 115.340,43.516 116.601,42.985 117.384 C 42.454 118.167,41.619 119.751,41.131 120.904 C 40.642 122.057,40.109 123.094,39.946 123.208 C 39.784 123.322,39.304 124.222,38.881 125.208 C 38.458 126.194,37.547 128.207,36.856 129.683 C 36.165 131.159,35.600 132.578,35.600 132.836 C 35.600 133.094,35.260 133.867,34.844 134.553 C 34.428 135.239,33.665 137.150,33.150 138.800 C 32.634 140.450,32.096 141.890,31.955 142.000 C 31.814 142.110,31.197 144.000,30.585 146.200 C 29.973 148.400,29.343 150.380,29.184 150.600 C 29.026 150.820,28.502 152.710,28.021 154.800 C 27.540 156.890,26.904 159.326,26.607 160.213 C 26.311 161.100,25.676 164.430,25.197 167.613 C 24.717 170.796,24.169 173.760,23.978 174.200 C 22.095 178.541,22.095 221.059,23.978 225.400 C 24.169 225.840,24.717 228.804,25.197 231.987 C 25.676 235.170,26.311 238.500,26.607 239.387 C 26.904 240.274,27.540 242.710,28.021 244.800 C 28.502 246.890,29.038 248.780,29.211 249.000 C 29.383 249.220,30.013 251.200,30.610 253.400 C 31.206 255.600,31.811 257.490,31.953 257.600 C 32.096 257.710,32.625 259.105,33.129 260.700 C 33.633 262.295,34.226 263.600,34.447 263.600 C 34.667 263.600,34.736 263.780,34.600 263.999 C 34.465 264.219,34.634 264.799,34.977 265.288 C 35.320 265.778,35.600 266.397,35.600 266.665 C 35.600 266.933,36.410 268.874,37.400 270.978 C 38.390 273.083,39.200 274.971,39.200 275.174 C 39.200 275.377,39.432 275.781,39.715 276.071 C 39.999 276.362,40.649 277.590,41.160 278.800 C 41.670 280.010,42.299 281.270,42.557 281.600 C 42.814 281.930,43.451 283.010,43.972 284.000 C 44.493 284.990,45.132 286.070,45.393 286.400 C 45.654 286.730,46.277 287.810,46.778 288.800 C 47.278 289.790,47.821 290.690,47.983 290.800 C 48.146 290.910,48.777 291.900,49.385 293.000 C 49.993 294.100,50.615 295.090,50.766 295.200 C 50.918 295.310,51.452 296.075,51.954 296.900 C 52.455 297.725,53.031 298.400,53.233 298.400 C 53.435 298.400,53.604 298.625,53.610 298.900 C 53.615 299.175,54.290 300.280,55.110 301.356 C 55.929 302.432,56.780 303.602,57.000 303.956 C 57.434 304.655,60.005 307.897,61.604 309.762 C 70.126 319.703,77.234 326.741,85.600 333.522 C 87.030 334.681,88.698 336.072,89.307 336.614 C 89.916 337.157,90.557 337.600,90.731 337.600 C 90.906 337.600,91.476 337.998,91.998 338.484 C 92.520 338.971,94.399 340.334,96.174 341.514 C 97.948 342.695,99.670 343.890,100.000 344.171 C 100.330 344.451,101.410 345.113,102.400 345.641 C 103.390 346.168,104.463 346.850,104.784 347.156 C 105.105 347.461,105.948 347.953,106.657 348.250 C 107.365 348.546,108.051 348.959,108.181 349.169 C 108.310 349.378,109.447 350.035,110.708 350.628 C 111.969 351.222,113.090 351.843,113.200 352.009 C 113.310 352.175,114.551 352.794,115.958 353.385 C 117.365 353.976,118.773 354.716,119.087 355.030 C 119.400 355.343,119.835 355.600,120.052 355.600 C 120.270 355.600,121.956 356.320,123.800 357.200 C 125.644 358.080,127.343 358.800,127.575 358.800 C 127.808 358.800,129.123 359.327,130.499 359.970 C 131.875 360.614,134.080 361.447,135.400 361.823 C 136.720 362.199,137.890 362.629,138.000 362.780 C 138.110 362.930,139.730 363.475,141.600 363.991 C 143.470 364.507,145.180 365.059,145.400 365.218 C 145.620 365.377,147.960 365.991,150.600 366.582 C 153.240 367.172,155.760 367.825,156.200 368.032 C 157.069 368.440,169.157 370.397,170.820 370.399 C 171.381 370.400,172.011 370.562,172.220 370.759 C 173.960 372.404,215.404 372.330,217.055 370.678 C 217.208 370.525,217.798 370.400,218.367 370.399 C 220.040 370.397,232.127 368.442,233.000 368.032 C 233.440 367.825,235.960 367.172,238.600 366.582 C 241.240 365.991,243.580 365.367,243.800 365.195 C 244.020 365.024,245.730 364.476,247.600 363.978 C 249.470 363.481,251.090 362.953,251.200 362.806 C 251.310 362.658,252.975 362.051,254.900 361.456 C 256.825 360.861,258.400 360.239,258.400 360.074 C 258.400 359.910,259.255 359.530,260.300 359.231 C 261.345 358.932,263.864 357.903,265.898 356.944 C 267.933 355.985,269.778 355.200,269.998 355.200 C 270.219 355.200,270.400 355.052,270.400 354.871 C 270.400 354.690,271.615 354.043,273.100 353.433 C 274.585 352.824,275.890 352.197,276.000 352.042 C 276.110 351.886,277.190 351.249,278.400 350.626 C 279.610 350.003,281.029 349.157,281.554 348.747 C 282.079 348.336,282.720 348.000,282.979 348.000 C 283.237 348.000,283.799 347.685,284.227 347.300 C 284.655 346.915,285.813 346.164,286.802 345.631 C 287.791 345.098,289.050 344.326,289.600 343.914 C 292.392 341.826,295.636 339.599,295.901 339.589 C 296.066 339.583,296.725 339.043,297.367 338.389 C 298.008 337.735,298.722 337.200,298.953 337.200 C 299.183 337.200,299.738 336.836,300.186 336.391 C 300.634 335.945,302.276 334.550,303.835 333.291 C 312.967 325.911,327.518 311.079,330.169 306.445 C 330.372 306.090,330.867 305.565,331.269 305.277 C 331.671 304.990,332.000 304.568,332.000 304.341 C 332.000 304.113,332.595 303.232,333.322 302.382 C 334.050 301.532,334.905 300.334,335.222 299.719 C 335.540 299.103,336.041 298.346,336.335 298.036 C 336.805 297.542,338.180 295.574,339.400 293.650 C 339.620 293.303,340.475 291.990,341.300 290.731 C 342.125 289.473,342.800 288.278,342.800 288.076 C 342.800 287.873,343.136 287.279,343.547 286.754 C 343.957 286.229,344.803 284.810,345.426 283.600 C 346.049 282.390,346.681 281.310,346.829 281.200 C 346.978 281.090,347.520 280.010,348.034 278.800 C 348.548 277.590,349.201 276.362,349.485 276.071 C 349.768 275.781,350.000 275.377,350.000 275.174 C 350.000 274.971,350.780 273.139,351.734 271.102 C 352.687 269.066,353.716 266.545,354.021 265.500 C 354.325 264.455,354.691 263.600,354.833 263.600 C 354.976 263.600,355.490 262.385,355.977 260.900 C 356.464 259.415,357.101 257.660,357.392 257.000 C 357.683 256.340,358.318 254.360,358.804 252.600 C 359.289 250.840,359.826 249.220,359.997 249.000 C 360.168 248.780,360.791 246.440,361.382 243.800 C 361.972 241.160,362.625 238.640,362.832 238.200 C 363.040 237.760,363.652 234.700,364.193 231.400 C 364.734 228.100,365.347 224.482,365.555 223.360 C 367.288 213.999,367.044 178.472,365.217 174.200 C 365.029 173.760,364.482 170.790,364.002 167.600 C 363.522 164.410,362.993 161.620,362.827 161.400 C 362.660 161.180,362.213 159.470,361.833 157.600 C 361.075 153.874,360.535 151.828,359.987 150.600 C 359.790 150.160,359.177 148.204,358.625 146.254 C 358.073 144.303,357.470 142.503,357.286 142.254 C 357.101 142.004,356.525 140.405,356.005 138.700 C 355.485 136.995,354.940 135.600,354.794 135.600 C 354.648 135.600,354.288 134.835,353.995 133.900 C 353.701 132.965,352.927 131.030,352.275 129.600 C 351.622 128.170,350.742 126.194,350.319 125.208 C 349.896 124.222,349.416 123.322,349.254 123.208 C 349.091 123.094,348.540 122.010,348.029 120.800 C 347.518 119.590,346.966 118.510,346.804 118.400 C 346.641 118.290,346.029 117.183,345.444 115.941 C 344.859 114.698,344.115 113.461,343.790 113.192 C 343.466 112.923,343.199 112.499,343.197 112.251 C 343.195 111.795,340.305 107.046,338.908 105.200 C 338.492 104.650,337.718 103.480,337.188 102.600 C 336.659 101.720,335.905 100.651,335.513 100.225 C 335.121 99.798,334.800 99.320,334.800 99.162 C 334.800 98.908,333.930 97.746,331.234 94.400 C 328.086 90.494,326.924 88.994,326.400 88.158 C 326.070 87.632,325.620 87.200,325.400 87.198 C 325.180 87.196,324.565 86.556,324.034 85.776 C 322.856 84.047,312.829 73.908,309.025 70.600 C 302.853 65.233,299.338 62.400,298.851 62.400 C 298.628 62.400,298.210 62.076,297.923 61.680 C 297.635 61.284,295.781 59.889,293.802 58.580 C 291.823 57.271,289.854 55.885,289.427 55.500 C 288.999 55.115,288.501 54.800,288.320 54.800 C 288.139 54.800,286.958 54.101,285.695 53.248 C 284.433 52.394,282.995 51.572,282.500 51.421 C 282.005 51.270,281.600 50.983,281.600 50.785 C 281.600 50.586,280.565 49.938,279.300 49.345 C 278.035 48.752,276.908 48.130,276.795 47.963 C 276.682 47.796,275.422 47.157,273.995 46.543 C 272.568 45.929,271.162 45.196,270.871 44.913 C 270.581 44.631,270.185 44.400,269.991 44.400 C 269.798 44.400,267.940 43.590,265.864 42.600 C 263.788 41.610,261.904 40.800,261.677 40.800 C 261.451 40.800,260.396 40.369,259.333 39.841 C 258.270 39.314,256.320 38.554,255.000 38.152 C 253.680 37.750,252.510 37.313,252.400 37.180 C 252.290 37.048,250.670 36.513,248.800 35.993 C 246.930 35.473,245.220 34.923,245.000 34.772 C 244.458 34.399,240.732 33.373,237.800 32.790 C 236.480 32.528,235.220 32.168,235.000 31.991 C 234.548 31.626,222.720 29.600,221.043 29.600 C 220.443 29.600,220.046 29.450,220.159 29.266 C 220.727 28.347,185.931 27.035,181.400 27.804 M212.721 90.836 C 217.299 92.382,221.928 96.852,226.814 104.444 C 231.880 112.315,225.824 140.573,216.849 150.943 C 211.226 157.441,211.095 157.386,232.400 157.407 C 257.647 157.431,267.968 159.344,272.364 164.815 C 277.375 171.051,277.011 180.123,271.577 184.440 C 264.514 190.050,263.925 193.376,269.600 195.598 C 275.042 197.730,277.025 202.354,274.490 207.000 C 273.433 208.937,272.585 209.644,268.046 212.371 C 263.510 215.096,265.073 224.387,270.069 224.399 C 272.268 224.403,274.400 227.913,274.400 231.528 C 274.400 234.531,273.438 236.018,270.235 237.964 C 264.962 241.167,264.385 245.636,268.973 247.736 C 272.581 249.388,273.703 252.719,271.884 256.376 C 270.181 259.799,269.144 260.089,256.200 260.763 C 233.529 261.945,217.447 262.394,176.359 262.991 L 160.518 263.221 160.262 260.510 C 160.121 259.020,159.998 254.290,159.989 250.000 C 159.980 245.710,159.812 237.790,159.615 232.400 C 159.419 227.010,159.034 210.529,158.759 195.775 L 158.260 168.950 162.256 163.575 C 164.454 160.619,167.770 156.139,169.626 153.620 C 171.482 151.100,174.440 147.096,176.200 144.721 C 177.960 142.346,180.660 138.688,182.200 136.593 C 189.061 127.257,190.530 125.413,193.118 122.886 C 197.782 118.333,199.487 112.230,197.064 108.770 C 195.213 106.127,197.618 98.233,201.603 93.873 C 204.945 90.217,208.230 89.320,212.721 90.836 M141.766 173.050 C 142.815 173.408,144.280 174.306,145.020 175.047 C 147.708 177.734,147.600 175.624,147.600 225.658 C 147.600 275.919,147.733 273.429,144.899 276.081 C 142.374 278.443,142.758 278.400,124.120 278.396 L 107.000 278.392 104.865 277.168 C 100.857 274.870,101.175 279.529,101.295 224.868 L 101.400 177.274 102.638 175.737 C 105.207 172.546,105.976 172.426,124.029 172.412 C 137.614 172.402,140.128 172.492,141.766 173.050 " stroke="none" fill="#5b93fc" fill-rule="evenodd"></path><path id="path2" d="M201.775 93.700 L 200.600 95.000 201.900 93.825 C 203.112 92.730,203.384 92.400,203.075 92.400 C 203.006 92.400,202.421 92.985,201.775 93.700 M228.093 113.600 C 228.093 114.370,228.175 114.685,228.276 114.300 C 228.376 113.915,228.376 113.285,228.276 112.900 C 228.175 112.515,228.093 112.830,228.093 113.600 M158.542 176.200 C 158.541 178.180,158.608 179.040,158.692 178.112 C 158.776 177.184,158.777 175.564,158.695 174.512 C 158.612 173.460,158.543 174.220,158.542 176.200 M275.709 174.800 C 275.709 175.790,275.787 176.195,275.882 175.700 C 275.978 175.205,275.978 174.395,275.882 173.900 C 275.787 173.405,275.709 173.810,275.709 174.800 M158.942 193.800 C 158.941 195.780,159.008 196.640,159.092 195.712 C 159.176 194.784,159.177 193.164,159.095 192.112 C 159.012 191.060,158.943 191.820,158.942 193.800 M159.320 211.600 C 159.320 212.810,159.395 213.305,159.487 212.700 C 159.578 212.095,159.578 211.105,159.487 210.500 C 159.395 209.895,159.320 210.390,159.320 211.600 M159.714 231.800 C 159.717 232.900,159.795 233.303,159.887 232.695 C 159.979 232.086,159.977 231.186,159.882 230.695 C 159.787 230.203,159.711 230.700,159.714 231.800 M160.120 253.200 C 160.120 254.410,160.195 254.905,160.287 254.300 C 160.378 253.695,160.378 252.705,160.287 252.100 C 160.195 251.495,160.120 251.990,160.120 253.200 M238.100 261.476 C 238.485 261.576,239.115 261.576,239.500 261.476 C 239.885 261.375,239.570 261.293,238.800 261.293 C 238.030 261.293,237.715 261.375,238.100 261.476 M223.900 261.882 C 224.395 261.978,225.205 261.978,225.700 261.882 C 226.195 261.787,225.790 261.709,224.800 261.709 C 223.810 261.709,223.405 261.787,223.900 261.882 M205.500 262.293 C 206.435 262.377,207.965 262.377,208.900 262.293 C 209.835 262.209,209.070 262.140,207.200 262.140 C 205.330 262.140,204.565 262.209,205.500 262.293 M184.300 262.696 C 185.675 262.774,187.925 262.774,189.300 262.696 C 190.675 262.618,189.550 262.554,186.800 262.554 C 184.050 262.554,182.925 262.618,184.300 262.696 M116.274 278.299 C 120.494 278.364,127.514 278.364,131.874 278.300 C 136.233 278.235,132.780 278.182,124.200 278.182 C 115.620 278.182,112.053 278.235,116.274 278.299 " stroke="none" fill="#9abbfc" fill-rule="evenodd"></path><path id="path3" d="M227.724 111.000 C 227.726 112.320,227.801 112.812,227.890 112.093 C 227.979 111.374,227.977 110.294,227.886 109.693 C 227.795 109.092,227.722 109.680,227.724 111.000 M227.728 116.800 C 227.728 118.230,227.801 118.815,227.889 118.100 C 227.978 117.385,227.978 116.215,227.889 115.500 C 227.801 114.785,227.728 115.370,227.728 116.800 M191.178 125.100 L 189.800 126.600 191.300 125.222 C 192.696 123.938,192.984 123.600,192.678 123.600 C 192.612 123.600,191.937 124.275,191.178 125.100 M222.465 141.017 C 221.795 142.488,221.923 142.802,222.647 141.465 C 222.986 140.840,223.188 140.254,223.096 140.163 C 223.005 140.071,222.721 140.456,222.465 141.017 M228.900 157.487 C 229.505 157.578,230.495 157.578,231.100 157.487 C 231.705 157.395,231.210 157.320,230.000 157.320 C 228.790 157.320,228.295 157.395,228.900 157.487 M239.705 157.487 C 240.314 157.579,241.214 157.577,241.705 157.482 C 242.197 157.387,241.700 157.311,240.600 157.314 C 239.500 157.317,239.097 157.395,239.705 157.487 M218.512 157.895 C 219.564 157.977,221.184 157.976,222.112 157.892 C 223.040 157.808,222.180 157.741,220.200 157.742 C 218.220 157.743,217.460 157.812,218.512 157.895 M250.100 158.276 C 250.485 158.376,251.115 158.376,251.500 158.276 C 251.885 158.175,251.570 158.093,250.800 158.093 C 250.030 158.093,249.715 158.175,250.100 158.276 M158.514 171.000 C 158.517 172.100,158.595 172.503,158.687 171.895 C 158.779 171.286,158.777 170.386,158.682 169.895 C 158.587 169.403,158.511 169.900,158.514 171.000 M115.927 173.100 C 120.617 173.164,128.177 173.164,132.727 173.099 C 137.277 173.035,133.440 172.983,124.200 172.983 C 114.960 172.983,111.237 173.036,115.927 173.100 M143.000 173.857 C 145.037 175.664,145.787 176.191,145.002 175.263 C 144.566 174.748,143.847 174.141,143.404 173.914 C 142.962 173.687,142.780 173.662,143.000 173.857 M103.375 175.300 L 102.200 176.600 103.500 175.425 C 104.712 174.330,104.984 174.000,104.675 174.000 C 104.606 174.000,104.021 174.585,103.375 175.300 M146.993 225.600 C 146.993 251.010,147.041 261.405,147.100 248.700 C 147.159 235.995,147.159 215.205,147.100 202.500 C 147.041 189.795,146.993 200.190,146.993 225.600 M158.958 185.000 C 158.958 188.080,159.021 189.287,159.097 187.682 C 159.173 186.078,159.173 183.558,159.096 182.082 C 159.019 180.607,158.957 181.920,158.958 185.000 M268.400 186.600 C 267.428 187.590,266.723 188.400,266.833 188.400 C 266.943 188.400,267.828 187.590,268.800 186.600 C 269.772 185.610,270.477 184.800,270.367 184.800 C 270.257 184.800,269.372 185.610,268.400 186.600 M159.351 205.200 C 159.351 207.730,159.416 208.765,159.496 207.500 C 159.575 206.235,159.575 204.165,159.496 202.900 C 159.416 201.635,159.351 202.670,159.351 205.200 M272.378 209.100 L 271.000 210.600 272.500 209.222 C 273.896 207.938,274.184 207.600,273.878 207.600 C 273.812 207.600,273.137 208.275,272.378 209.100 M159.744 226.400 C 159.744 228.490,159.812 229.345,159.894 228.300 C 159.976 227.255,159.976 225.545,159.894 224.500 C 159.812 223.455,159.744 224.310,159.744 226.400 M160.144 247.600 C 160.144 249.690,160.212 250.545,160.294 249.500 C 160.376 248.455,160.376 246.745,160.294 245.700 C 160.212 244.655,160.144 245.510,160.144 247.600 M259.305 260.287 C 259.914 260.379,260.814 260.377,261.305 260.282 C 261.797 260.187,261.300 260.111,260.200 260.114 C 259.100 260.117,258.697 260.195,259.305 260.287 M253.700 260.687 C 254.305 260.778,255.295 260.778,255.900 260.687 C 256.505 260.595,256.010 260.520,254.800 260.520 C 253.590 260.520,253.095 260.595,253.700 260.687 M246.105 261.087 C 246.714 261.179,247.614 261.177,248.105 261.082 C 248.597 260.987,248.100 260.911,247.000 260.914 C 245.900 260.917,245.497 260.995,246.105 261.087 M234.500 261.487 C 235.105 261.578,236.095 261.578,236.700 261.487 C 237.305 261.395,236.810 261.320,235.600 261.320 C 234.390 261.320,233.895 261.395,234.500 261.487 M218.112 261.895 C 219.164 261.977,220.784 261.976,221.712 261.892 C 222.640 261.808,221.780 261.741,219.800 261.742 C 217.820 261.743,217.060 261.812,218.112 261.895 M195.682 262.296 C 197.158 262.373,199.678 262.373,201.282 262.297 C 202.887 262.221,201.680 262.158,198.600 262.158 C 195.520 262.157,194.207 262.219,195.682 262.296 M165.700 262.699 C 168.725 262.767,173.675 262.767,176.700 262.699 C 179.725 262.631,177.250 262.575,171.200 262.575 C 165.150 262.575,162.675 262.631,165.700 262.699 " stroke="none" fill="#b4ccfc" fill-rule="evenodd"></path><path id="path4" d="M208.300 90.282 C 208.795 90.378,209.605 90.378,210.100 90.282 C 210.595 90.187,210.190 90.109,209.200 90.109 C 208.210 90.109,207.805 90.187,208.300 90.282 M196.514 106.200 C 196.517 107.300,196.595 107.703,196.687 107.095 C 196.779 106.486,196.777 105.586,196.682 105.095 C 196.587 104.603,196.511 105.100,196.514 106.200 M228.101 111.000 C 228.105 111.880,228.187 112.193,228.283 111.695 C 228.379 111.198,228.375 110.478,228.275 110.095 C 228.175 109.713,228.096 110.120,228.101 111.000 M228.114 116.600 C 228.117 117.700,228.195 118.103,228.287 117.495 C 228.379 116.886,228.377 115.986,228.282 115.495 C 228.187 115.003,228.111 115.500,228.114 116.600 M116.127 172.700 C 120.707 172.764,128.087 172.764,132.527 172.699 C 136.967 172.635,133.220 172.583,124.200 172.583 C 115.180 172.583,111.547 172.635,116.127 172.700 M158.550 183.800 C 158.551 186.220,158.616 187.158,158.696 185.885 C 158.776 184.612,158.775 182.632,158.694 181.485 C 158.614 180.338,158.549 181.380,158.550 183.800 M147.393 225.600 C 147.393 250.790,147.441 261.095,147.500 248.500 C 147.559 235.905,147.559 215.295,147.500 202.700 C 147.441 190.105,147.393 200.410,147.393 225.600 M271.978 183.900 L 270.600 185.400 272.100 184.022 C 273.496 182.738,273.784 182.400,273.478 182.400 C 273.412 182.400,272.737 183.075,271.978 183.900 M158.960 203.000 C 158.961 206.300,159.022 207.597,159.098 205.882 C 159.173 204.167,159.172 201.467,159.097 199.882 C 159.021 198.297,158.959 199.700,158.960 203.000 M159.362 219.800 C 159.362 223.320,159.424 224.706,159.498 222.881 C 159.572 221.056,159.572 218.176,159.497 216.481 C 159.422 214.786,159.361 216.280,159.362 219.800 M271.200 224.925 C 271.200 224.994,271.785 225.579,272.500 226.225 L 273.800 227.400 272.625 226.100 C 271.530 224.888,271.200 224.616,271.200 224.925 M159.731 236.200 C 159.733 237.740,159.805 238.321,159.892 237.491 C 159.979 236.661,159.977 235.401,159.889 234.691 C 159.800 233.981,159.729 234.660,159.731 236.200 M272.509 253.200 C 272.509 254.190,272.587 254.595,272.682 254.100 C 272.778 253.605,272.778 252.795,272.682 252.300 C 272.587 251.805,272.509 252.210,272.509 253.200 M160.124 257.400 C 160.126 258.720,160.201 259.212,160.290 258.493 C 160.379 257.774,160.377 256.694,160.286 256.093 C 160.195 255.492,160.122 256.080,160.124 257.400 M240.500 261.476 C 240.885 261.576,241.515 261.576,241.900 261.476 C 242.285 261.375,241.970 261.293,241.200 261.293 C 240.430 261.293,240.115 261.375,240.500 261.476 M228.100 261.894 C 229.145 261.976,230.855 261.976,231.900 261.894 C 232.945 261.812,232.090 261.744,230.000 261.744 C 227.910 261.744,227.055 261.812,228.100 261.894 M213.300 262.297 C 215.005 262.372,217.795 262.372,219.500 262.297 C 221.205 262.222,219.810 262.161,216.400 262.161 C 212.990 262.161,211.595 262.222,213.300 262.297 M194.082 262.696 C 195.558 262.773,198.078 262.773,199.682 262.697 C 201.287 262.621,200.080 262.558,197.000 262.558 C 193.920 262.557,192.607 262.619,194.082 262.696 M163.318 263.098 C 165.033 263.173,167.733 263.172,169.318 263.097 C 170.903 263.021,169.500 262.959,166.200 262.960 C 162.900 262.961,161.603 263.022,163.318 263.098 " stroke="none" fill="#80acfc" fill-rule="evenodd"></path></g></svg>